<?xml version="1.0" encoding="UTF-8"?>
<svg id="Layer_1" data-name="Layer 1" xmlns="http://www.w3.org/2000/svg" width="297mm" height="106mm" viewBox="0 0 841.89 300.472">
  <g id="Text">
    <g>
      <path d="m137.394,44.932v26.028h-58.884v31.791h58.884v26.241h-58.884v61.448h-36.698V44.932h95.583Z" fill="#fff" stroke-width="0"/>
      <path d="m240.02,44.719l64.008,145.721h-37.551l-14.081-33.497h-62.513l-13.868,33.497h-37.551l63.366-145.721h38.19Zm-40.535,88.754h43.309l-21.762-52.911-21.547,52.911Z" fill="#fff" stroke-width="0"/>
      <path d="m381.474,44.932c30.938,0,49.498,13.655,49.498,35.204,0,14.507-8.321,26.454-20.907,31.575,21.762,6.829,31.575,20.696,31.575,37.977,0,32.218-26.241,40.752-58.884,40.752h-63.152V44.932h61.871Zm-25.175,60.379h15.576c15.576,0,24.109-5.334,24.109-19.202,0-12.802-7.042-18.562-22.615-18.562h-17.07v37.764Zm19.202,62.514c18.989,0,29.23-6.189,29.23-19.845,0-13.439-9.815-20.268-29.23-20.268h-19.202v40.113h19.202Z" fill="#fff" stroke-width="0"/>
      <path d="m477.486,44.932v135.266h71.473v10.242h-82.567V44.932h11.094Z" fill="#fff" stroke-width="0"/>
      <path d="m627.687,43.864l64.647,146.576h-11.734l-21.336-48.22h-70.62l-20.694,48.22h-11.736l63.581-146.576h7.892Zm-34.562,88.33h61.658l-31.149-71.047-30.509,71.047Z" fill="#fff" stroke-width="0"/>
      <path d="m742.9,44.932c24.536,0,45.019,11.734,45.019,36.696,0,16.641-9.389,28.591-25.817,33.07,23.683,2.56,37.977,16.855,37.977,37.551,0,24.537-20.481,38.192-48.216,38.192h-42.245V44.932h33.283Zm-22.188,66.565h17.496c25.602,0,37.975-10.881,37.975-28.588,0-19.202-12.16-27.951-36.269-27.951h-19.202v56.539Zm29.23,68.914c22.188,0,38.617-8.321,38.617-29.016,0-19.415-13.868-29.87-42.243-29.87h-25.604v58.886h29.23Z" fill="#fff" stroke-width="0"/>
    </g>
    <g>
      <path d="m64.781,214.875v7.105c-2.945-2.881-6.337-4.545-10.242-4.545-3.969,0-6.402,2.048-6.402,5.055,0,2.433.512,4.545,7.169,8.387,9.217,5.312,11.202,8.384,11.202,14.338,0,6.4-5.057,11.393-12.673,11.393-4.289,0-8.322-1.473-11.778-4.033v-7.936c3.072,4.033,7.233,6.4,11.778,6.4,3.648,0,6.401-2.367,6.401-5.76,0-2.945-.833-4.93-9.473-9.984-6.465-3.778-8.898-7.235-8.898-12.611,0-6.209,5.377-10.881,12.866-10.881,3.585,0,7.042,1.088,10.05,3.072Z" fill="#fff" stroke-width="0"/>
      <path d="m115.731,212.379v5.505h-15.235v38.149h-6.272v-38.149h-14.979v-5.505h36.486Z" fill="#fff" stroke-width="0"/>
      <path d="m136.148,212.379v25.283c0,9.666,4.225,13.378,12.546,13.378s12.417-3.903,12.417-13.441v-25.219h6.274v25.219c0,11.905-6.081,19.011-18.691,19.011-12.098,0-18.82-6.081-18.82-18.947v-25.283h6.274Z" fill="#fff" stroke-width="0"/>
      <path d="m201.818,212.379c14.596,0,23.556,9.024,23.556,21.314,0,13.508-9.665,22.34-23.491,22.34h-16.643v-43.654h16.578Zm-.255,38.021c11.008,0,17.346-6.145,17.346-16.514,0-9.411-5.889-15.938-18.243-15.938h-9.154v32.452h10.05Z" fill="#fff" stroke-width="0"/>
      <path d="m266.658,212.379v5.569h-18.5v13.314h17.859v5.567h-17.859v13.571h19.076v5.633h-25.348v-43.654h24.772Z" fill="#fff" stroke-width="0"/>
      <path d="m289.251,212.379l29.252,33.861v-33.861h6.018v43.654h-5.442l-28.996-33.606v33.606h-6.016v-43.654h5.185Z" fill="#fff" stroke-width="0"/>
      <path d="m375.728,212.379v5.505h-15.235v38.149h-6.272v-38.149h-14.979v-5.505h36.486Z" fill="#fff" stroke-width="0"/>
    </g>
  </g>
</svg>