<?xml version="1.0" encoding="UTF-8"?>
<svg id="Layer_1" data-name="Layer 1" xmlns="http://www.w3.org/2000/svg" width="255.413mm" height="243.607mm" viewBox="0 0 724.005 690.539">
  <g id="Logo">
    <path id="Hat" d="m699.743,571.727c.039,1.148-1.492.342-2.295-1.207-.395-.763-1.674-3.064-2.841-5.112-3.876-6.801-10.216-22.208-10.778-26.194-.103-.731-.373-1.607-.599-1.946-.226-.34-.889-2.441-1.472-4.669-1.18-4.511-1.219-7.35-.287-21.163.353-5.233.738-12.284.856-15.67.117-3.386.55-6.651.961-7.255.701-1.031,1.386-1.056,11.079-.41,5.683.379,10.461.809,10.619.957.158.148-.963,18.642-2.49,41.098-1.528,22.456-2.766,41.164-2.752,41.572h0Zm-1.79-85.189c-7.782,2.176-15.614-6.268-13.576-14.636.87-3.572,5.11-8.209,8.121-8.88,5.157-1.15,10.532,1.612,13.018,6.69,1.168,2.385.97,7.947-.398,11.177-.947,2.236-4.237,4.831-7.165,5.649h0Zm1.655-25.894c-.826.595-6.185.268-6.941-.423-.37-.338,4.394-75.922,6.842-108.545.38-5.059.784-10.626.899-12.37l.209-3.171c-7.951-5.155-118.802-80.528-127.818-87.084-7.4,10.053-17.135,24.944-25.218,36.523-2.215,3.257-2.83,4.694-4.509,4.757-1.035-2.663-2.45-5.453-4.259-9.854-3.801-7.027-7.593-13.244-12.352-21.077-4.455-6.707-9.043-15.015-14.724-21.747-7.958-11.774-20.813-24.546-30.158-35.11-3.724-3.651-15.674-14.02-20.81-18.056-8.011-6.293-9.178-7.182-18.946-14.283-4.389-2.789-8.769-5.785-13.707-8.44-6.047-3.275-12.639-7.319-18.803-10.391-4.496-2.518-9.393-4.446-13.82-6.226-4.868-1.767-8.211-3.379-14.579-5.728-7.056-2.724-7.804-2.873-15.306-5.554,2.919-2.469,8.67-13.171,11.105-16.785-27.918-19.246-54.278-37.568-77.937-53.454-2.561-1.75-6.403-4.307-8.538-5.682-2.135-1.375-4.178-2.826-4.539-3.224-.362-.399-2.404-1.84-4.539-3.203-2.135-1.363-5.38-3.496-7.213-4.741-1.832-1.245-7.305-4.933-12.161-8.195-4.856-3.262-9.189-6.261-9.628-6.663-.439-.402-2.253-1.64-4.031-2.75-1.778-1.11-3.331-2.089-3.45-2.174-.409-.292,1.775-4.755,2.337-4.774.308-.01.545-.446.528-.967-.018-.521.187-.956.456-.965.269-.009.991-1.03,1.604-2.269.614-1.239,1.356-2.261,1.649-2.271.293-.01.523-.27.513-.578-.045-1.331,4.433-7.816,5.421-7.85,140.068,94.832,302.343,203.561,457.686,309.584,1.453.603,1.636.969,1.35,2.705-.597,2.89-3.243,5.844-5.158,8.441.009.278-.522,1.296-1.18,2.261-.987,1.447-1.348,4.151-2.056,15.389-.472,7.499-.905,15.202-.961,17.118-.056,1.916-.506,8.908-1,15.537-.494,6.629-1.928,27.731-3.187,46.892-1.579,24.035-2.53,35.012-3.069,35.4h0Z" fill="#fff" stroke-width="0"/>
    <g id="Inner">
      <path id="path5" d="m347.638,622.11v-65.413c-2.348-.898-4.638-1.969-6.837-3.267-31.187-18.386-34.466-70.622-7.317-116.663,27.146-46.043,74.435-68.46,105.621-50.073,31.187,18.388,34.465,70.621,7.321,116.663-4.38,7.427-9.288,14.228-14.564,20.352v48.595s67.218-38.468,67.218-38.468v-240.928s23.561-15.553,23.561-15.553c21.463,39.105,33.669,84.011,33.669,131.767,0,148.381-117.737,269.182-264.932,274.058l-.025-28.269,56.284-32.8Z" fill="#fff" stroke-width="0"/>
      <path id="path7" d="m425.707,239.271l-41.084,24.348c.81,6.751.836,14.183.81,16.738-.376,36.201-49.404,63.722-102.851,63.168-53.447-.554-91.513-32.933-91.243-64.788.305-36.2,35.117-64.543,88.544-66.137,18.087-.54,35.522,3.072,43.462,4.589l29.964-19.168-71.266-40.662-210.087,122.118-24.094-13.226c23.179-38.113,56.007-71.096,97.394-94.924,128.591-74.035,292.028-32.274,369.693,92.856l-23.898,15.09-65.343-40.004h0Z" fill="#fff" stroke-width="0"/>
      <path id="path9" d="m64.867,372.003l44.676,23.352c1.619-.271,11.536-9.553,13.767-10.799,31.628-17.62,78.189,5.677,104.202,52.369,26.014,46.69,23.795,100.075-7.83,117.698-31.629,17.619-78.723-3.52-104.74-50.21-4.195-7.532-9.798-25.018-12.418-32.664l-38.06-22.003.226,83.542,209.524,122.363-.101,27.57c-44.591-1.237-89.511-13.397-130.721-37.527C15.349,570.718-29.401,408.076,40.767,278.594l24.099,13.234v80.176s0,0,0,0Z" fill="#fff" stroke-width="0"/>
    </g>
  </g>
</svg>