<?xml version="1.0" encoding="UTF-8"?>
<svg id="logo" xmlns="http://www.w3.org/2000/svg" width="192.926mm" height="192.888mm" viewBox="0 0 546.876 546.77">
  <path id="path5" d="m208.002,485.855v-65.203c2.34-.895,4.623-1.963,6.815-3.257,31.087-18.327,34.355-70.395,7.293-116.288-27.059-45.895-74.196-68.24-105.282-49.912-31.087,18.329-34.354,70.394-7.297,116.288,4.366,7.403,9.258,14.182,14.517,20.287v48.439l-67.002-38.344v-240.154l-23.485-15.503C12.167,181.187,0,225.949,0,273.551c0,147.904,117.359,268.317,264.08,273.177l.025-28.178-56.103-32.695Z" fill="#004884" stroke-width="0"/>
  <path id="path7" d="m130.184,104.246l40.952,24.27c-.807,6.729-.833,14.137-.807,16.684.375,36.085,49.245,63.517,102.52,62.965,53.275-.552,91.219-32.827,90.95-64.58-.304-36.084-35.004-64.336-88.259-65.924-18.029-.538-35.408,3.062-43.322,4.574l-29.868-19.106,71.037-40.531,209.412,121.725,24.017-13.183c-23.105-37.99-55.827-70.867-97.081-94.619C281.557-37.276,118.646,4.351,41.23,129.079l23.821,15.042,65.133-39.875h0Z" fill="#006cb1" stroke-width="0"/>
  <path id="path9" d="m489.865,236.552l-44.532,23.277c-1.614-.27-11.499-9.522-13.723-10.764-31.526-17.563-77.938,5.659-103.867,52.201-25.93,46.54-23.719,99.753,7.805,117.32,31.527,17.562,78.47-3.509,104.403-50.049,4.182-7.508,9.767-24.938,12.378-32.559l37.938-21.932-.225,83.273-208.851,121.97.101,27.481c44.448-1.233,89.223-13.354,130.301-37.406,127.63-74.736,172.237-236.855,102.294-365.921l-24.022,13.191v79.918h0Z" fill="#21bbef" stroke-width="0"/>
</svg>