<?xml version="1.0" encoding="UTF-8"?>
<svg id="Layer_1" data-name="Layer 1" xmlns="http://www.w3.org/2000/svg" width="306.145mm" height="291.994mm" viewBox="0 0 867.812 827.699">
  <g id="Logo">
    <path id="Hat" d="m839.194,685.598c.047,1.377-1.791.411-2.754-1.449-.474-.916-2.009-3.677-3.41-6.135-4.651-8.161-12.259-26.649-12.934-31.433-.124-.877-.447-1.928-.719-2.336-.272-.408-1.066-2.929-1.766-5.603-1.417-5.413-1.463-8.82-.344-25.395.424-6.279.886-14.741,1.027-18.805.141-4.064.659-7.981,1.153-8.706.841-1.237,1.663-1.267,13.295-.491,6.819.455,12.554.971,12.743,1.149.19.177-1.155,22.37-2.988,49.318-1.833,26.948-3.32,49.396-3.303,49.886h0Zm-2.148-102.226c-9.338,2.611-18.737-7.522-16.291-17.564,1.044-4.287,6.132-9.851,9.745-10.657,6.188-1.38,12.639,1.935,15.621,8.028,1.401,2.862,1.164,9.536-.477,13.413-1.136,2.684-5.084,5.797-8.598,6.779h0Zm1.986-31.073c-.991.713-7.422.321-8.33-.508-.444-.405,5.273-91.106,8.21-130.254.455-6.071.941-12.751,1.079-14.844l.25-3.805c-9.542-6.186-142.562-96.634-153.382-104.501-8.88,12.064-20.562,29.933-30.262,43.828-2.658,3.909-3.396,5.633-5.41,5.708-1.242-3.196-2.94-6.544-5.111-11.825-4.562-8.432-9.112-15.893-14.822-25.292-5.346-8.049-10.851-18.018-17.669-26.096-9.549-14.129-24.976-29.456-36.189-42.132-4.469-4.382-18.809-16.824-24.972-21.667-9.613-7.551-11.013-8.618-22.735-17.14-5.266-3.347-10.523-6.942-16.448-10.128-7.257-3.93-15.167-8.782-22.564-12.47-5.395-3.021-11.272-5.336-16.584-7.472-5.841-2.121-9.854-4.055-17.495-6.874-8.467-3.269-9.365-3.448-18.367-6.665,3.502-2.963,10.404-15.805,13.326-20.142-33.501-23.095-65.134-45.081-93.524-64.145-3.073-2.1-7.684-5.168-10.246-6.818-2.562-1.65-5.013-3.391-5.447-3.869-.434-.478-2.885-2.208-5.446-3.843-2.562-1.635-6.456-4.196-8.655-5.69-2.199-1.494-8.766-5.919-14.593-9.834-5.828-3.915-11.027-7.513-11.554-7.995-.527-.483-2.704-1.968-4.838-3.3-2.134-1.332-3.997-2.506-4.14-2.609-.491-.35,2.13-5.706,2.804-5.729.37-.013.653-.535.633-1.161-.021-.626.225-1.147.547-1.158.322-.011,1.189-1.236,1.925-2.723.737-1.487,1.627-2.713,1.978-2.725.351-.012.628-.324.616-.694-.054-1.597,5.32-9.379,6.505-9.42,168.082,113.799,362.812,244.273,549.223,371.501,1.744.724,1.963,1.163,1.62,3.246-.717,3.468-3.891,7.013-6.19,10.129.011.334-.626,1.555-1.416,2.713-1.184,1.736-1.618,4.981-2.468,18.467-.567,8.999-1.085,18.242-1.153,20.541-.067,2.299-.607,10.689-1.2,18.645-.593,7.955-2.314,33.277-3.824,56.27-1.894,28.842-3.036,42.015-3.683,42.48h0Z" fill="#006db1" stroke-width="0"/>
    <g id="Inner">
      <path id="path5" d="m416.669,746.058v-78.496c-2.817-1.077-5.565-2.363-8.204-3.921-37.425-22.063-41.359-84.746-8.78-139.996,32.576-55.252,89.322-82.152,126.746-60.088,37.425,22.066,41.358,84.745,8.785,139.996-5.256,8.912-11.145,17.073-17.477,24.423v58.314s80.662-46.161,80.662-46.161v-289.114s28.273-18.664,28.273-18.664c25.756,46.926,40.403,100.813,40.403,158.12,0,178.057-141.285,323.019-317.918,328.869l-.03-33.923,67.541-39.361Z" fill="#0fbbee" stroke-width="0"/>
      <path id="path7" d="m510.352,286.651l-49.301,29.218c.972,8.101,1.003,17.019.972,20.085-.451,43.442-59.285,76.466-123.421,75.802-64.136-.665-109.816-39.519-109.492-77.746.366-43.44,42.14-77.452,106.252-79.364,21.705-.648,42.627,3.686,52.154,5.506l35.957-23.001-85.519-48.794-252.105,146.541-28.913-15.871c27.815-45.735,67.208-85.315,116.873-113.909,154.31-88.842,350.433-38.728,443.632,111.428l-28.677,18.109-78.412-48.004h0Z" fill="#0fbbee" stroke-width="0"/>
      <path id="path9" d="m77.343,445.93l53.611,28.022c1.943-.325,13.843-11.463,16.521-12.958,37.953-21.144,93.827,6.813,125.042,62.843,31.216,56.028,28.555,120.09-9.396,141.238-37.954,21.142-94.468-4.224-125.688-60.252-5.035-9.039-11.758-30.022-14.901-39.197l-45.672-26.403.271,100.25,251.429,146.836-.122,33.084c-53.51-1.484-107.413-16.076-156.865-45.032C17.922,684.388-35.779,489.217,48.424,333.839l28.919,15.88v96.211s0,0,0,0Z" fill="#0fbbee" stroke-width="0"/>
    </g>
  </g>
</svg>